<svg xmlns="http://www.w3.org/2000/svg" width="24" height="24" viewBox="0 0 24 24" fill="none">
  <path d="M10.1703 19.0003C10.3197 19.0008 10.4673 18.9678 10.6023 18.9038C10.7373 18.8398 10.8562 18.7463 10.9503 18.6303L15.7803 12.6303C15.9274 12.4513 16.0078 12.2269 16.0078 11.9953C16.0078 11.7637 15.9274 11.5392 15.7803 11.3603L10.7803 5.36028C10.6106 5.15606 10.3667 5.02763 10.1022 5.00325C9.83782 4.97888 9.57454 5.06054 9.37032 5.23028C9.16611 5.40001 9.03768 5.64393 9.0133 5.90835C8.98892 6.17278 9.07058 6.43606 9.24032 6.64028L13.7103 12.0003L9.39032 17.3603C9.26804 17.5071 9.19036 17.6858 9.16648 17.8754C9.1426 18.0649 9.17352 18.2573 9.25558 18.4299C9.33763 18.6024 9.46739 18.7478 9.6295 18.8489C9.79161 18.95 9.97929 19.0025 10.1703 19.0003Z" fill="white"/>
</svg>
